ISO-10303-21;
HEADER;
/* Generated by software containing ST-Developer
 * from STEP Tools, Inc. (www.steptools.com) 
 */
/* OPTION: using custom renumber hook */

FILE_DESCRIPTION(
/* description */ ('STEP AP242 Edition 2',
'CAx-IF Rec.Pracs.---Representation and Presentation of Product Manufa
cturing Information (PMI)---4.0---2014-10-13',
'CAx-IF Rec.Pracs.---3D Tessellated Geometry---0.4---2014-09-14','2;1',
'CAx-IF Rec.Pracs.---User Defined Attributes---1.5---2016-08-15'),
/* implementation_level */ '2;1');

FILE_NAME(
/* name */ '4x4 Mariner Board',
/* time_stamp */ '2026-04-22T22:13:59Z',
/* author */ (''),
/* organization */ (''),
/* preprocessor_version */ 'ST-DEVELOPER v20',
/* originating_system */ 'ONSHAPE BY PTC INC, 1.213',
/* authorisation */ '  ');

FILE_SCHEMA (('AP242_MANAGED_MODEL_BASED_3D_ENGINEERING_MIM_LF { 1 0 10303 442 3 1 4 }'));
ENDSEC;

DATA;
#10=SHAPE_REPRESENTATION_RELATIONSHIP('','',#331,#11);
#11=ADVANCED_BREP_SHAPE_REPRESENTATION('',(#329),#565);
#12=CIRCLE('',#337,0.00163195);
#13=CIRCLE('',#338,0.00163195);
#14=CIRCLE('',#340,0.00163195);
#15=CIRCLE('',#341,0.00163195);
#16=CIRCLE('',#344,0.0044831);
#17=CIRCLE('',#345,0.0044831);
#18=CIRCLE('',#346,0.0044831);
#19=CIRCLE('',#347,0.0044831);
#20=CIRCLE('',#350,0.0019431);
#21=CIRCLE('',#351,0.0019431);
#22=CIRCLE('',#353,0.0044831);
#23=CIRCLE('',#357,0.0019431);
#24=CIRCLE('',#358,0.0019431);
#25=CIRCLE('',#360,0.0044831);
#26=CIRCLE('',#364,0.0019431);
#27=CIRCLE('',#365,0.0019431);
#28=CIRCLE('',#367,0.0044831);
#29=CIRCLE('',#371,0.0019431);
#30=CIRCLE('',#372,0.0019431);
#31=CIRCLE('',#374,0.0044831);
#32=CYLINDRICAL_SURFACE('',#336,0.00163195);
#33=CYLINDRICAL_SURFACE('',#339,0.00163195);
#34=CYLINDRICAL_SURFACE('',#349,0.0019431);
#35=CYLINDRICAL_SURFACE('',#352,0.0044831);
#36=CYLINDRICAL_SURFACE('',#356,0.0019431);
#37=CYLINDRICAL_SURFACE('',#359,0.0044831);
#38=CYLINDRICAL_SURFACE('',#363,0.0019431);
#39=CYLINDRICAL_SURFACE('',#366,0.0044831);
#40=CYLINDRICAL_SURFACE('',#370,0.0019431);
#41=CYLINDRICAL_SURFACE('',#373,0.0044831);
#42=ORIENTED_EDGE('',*,*,#106,.F.);
#43=ORIENTED_EDGE('',*,*,#107,.F.);
#44=ORIENTED_EDGE('',*,*,#108,.T.);
#45=ORIENTED_EDGE('',*,*,#109,.T.);
#46=ORIENTED_EDGE('',*,*,#110,.T.);
#47=ORIENTED_EDGE('',*,*,#111,.F.);
#48=ORIENTED_EDGE('',*,*,#112,.F.);
#49=ORIENTED_EDGE('',*,*,#107,.T.);
#50=ORIENTED_EDGE('',*,*,#113,.T.);
#51=ORIENTED_EDGE('',*,*,#114,.F.);
#52=ORIENTED_EDGE('',*,*,#115,.F.);
#53=ORIENTED_EDGE('',*,*,#111,.T.);
#54=ORIENTED_EDGE('',*,*,#116,.T.);
#55=ORIENTED_EDGE('',*,*,#117,.F.);
#56=ORIENTED_EDGE('',*,*,#118,.T.);
#57=ORIENTED_EDGE('',*,*,#119,.F.);
#58=ORIENTED_EDGE('',*,*,#120,.F.);
#59=ORIENTED_EDGE('',*,*,#109,.F.);
#60=ORIENTED_EDGE('',*,*,#121,.T.);
#61=ORIENTED_EDGE('',*,*,#114,.T.);
#62=ORIENTED_EDGE('',*,*,#122,.F.);
#63=ORIENTED_EDGE('',*,*,#123,.F.);
#64=ORIENTED_EDGE('',*,*,#124,.F.);
#65=ORIENTED_EDGE('',*,*,#125,.F.);
#66=ORIENTED_EDGE('',*,*,#118,.F.);
#67=ORIENTED_EDGE('',*,*,#116,.F.);
#68=ORIENTED_EDGE('',*,*,#108,.F.);
#69=ORIENTED_EDGE('',*,*,#112,.T.);
#70=ORIENTED_EDGE('',*,*,#115,.T.);
#71=ORIENTED_EDGE('',*,*,#121,.F.);
#72=ORIENTED_EDGE('',*,*,#119,.T.);
#73=ORIENTED_EDGE('',*,*,#117,.T.);
#74=ORIENTED_EDGE('',*,*,#106,.T.);
#75=ORIENTED_EDGE('',*,*,#120,.T.);
#76=ORIENTED_EDGE('',*,*,#113,.F.);
#77=ORIENTED_EDGE('',*,*,#110,.F.);
#78=ORIENTED_EDGE('',*,*,#126,.F.);
#79=ORIENTED_EDGE('',*,*,#127,.T.);
#80=ORIENTED_EDGE('',*,*,#125,.T.);
#81=ORIENTED_EDGE('',*,*,#128,.F.);
#82=ORIENTED_EDGE('',*,*,#127,.F.);
#83=ORIENTED_EDGE('',*,*,#128,.T.);
#84=ORIENTED_EDGE('',*,*,#126,.T.);
#85=ORIENTED_EDGE('',*,*,#129,.F.);
#86=ORIENTED_EDGE('',*,*,#130,.T.);
#87=ORIENTED_EDGE('',*,*,#122,.T.);
#88=ORIENTED_EDGE('',*,*,#131,.F.);
#89=ORIENTED_EDGE('',*,*,#130,.F.);
#90=ORIENTED_EDGE('',*,*,#131,.T.);
#91=ORIENTED_EDGE('',*,*,#129,.T.);
#92=ORIENTED_EDGE('',*,*,#132,.F.);
#93=ORIENTED_EDGE('',*,*,#133,.T.);
#94=ORIENTED_EDGE('',*,*,#124,.T.);
#95=ORIENTED_EDGE('',*,*,#134,.F.);
#96=ORIENTED_EDGE('',*,*,#133,.F.);
#97=ORIENTED_EDGE('',*,*,#134,.T.);
#98=ORIENTED_EDGE('',*,*,#132,.T.);
#99=ORIENTED_EDGE('',*,*,#135,.F.);
#100=ORIENTED_EDGE('',*,*,#136,.T.);
#101=ORIENTED_EDGE('',*,*,#123,.T.);
#102=ORIENTED_EDGE('',*,*,#137,.F.);
#103=ORIENTED_EDGE('',*,*,#136,.F.);
#104=ORIENTED_EDGE('',*,*,#137,.T.);
#105=ORIENTED_EDGE('',*,*,#135,.T.);
#106=EDGE_CURVE('',#138,#139,#166,.T.);
#107=EDGE_CURVE('',#140,#138,#167,.T.);
#108=EDGE_CURVE('',#140,#141,#168,.T.);
#109=EDGE_CURVE('',#141,#139,#169,.T.);
#110=EDGE_CURVE('',#138,#142,#170,.T.);
#111=EDGE_CURVE('',#143,#142,#171,.T.);
#112=EDGE_CURVE('',#140,#143,#172,.T.);
#113=EDGE_CURVE('',#142,#144,#173,.T.);
#114=EDGE_CURVE('',#145,#144,#174,.T.);
#115=EDGE_CURVE('',#143,#145,#175,.T.);
#116=EDGE_CURVE('',#146,#146,#12,.T.);
#117=EDGE_CURVE('',#147,#147,#13,.T.);
#118=EDGE_CURVE('',#148,#148,#14,.T.);
#119=EDGE_CURVE('',#149,#149,#15,.T.);
#120=EDGE_CURVE('',#139,#144,#176,.T.);
#121=EDGE_CURVE('',#141,#145,#177,.T.);
#122=EDGE_CURVE('',#150,#150,#16,.T.);
#123=EDGE_CURVE('',#151,#151,#17,.T.);
#124=EDGE_CURVE('',#152,#152,#18,.T.);
#125=EDGE_CURVE('',#153,#153,#19,.T.);
#126=EDGE_CURVE('',#154,#154,#20,.T.);
#127=EDGE_CURVE('',#155,#155,#21,.T.);
#128=EDGE_CURVE('',#156,#156,#22,.T.);
#129=EDGE_CURVE('',#157,#157,#23,.T.);
#130=EDGE_CURVE('',#158,#158,#24,.T.);
#131=EDGE_CURVE('',#159,#159,#25,.T.);
#132=EDGE_CURVE('',#160,#160,#26,.T.);
#133=EDGE_CURVE('',#161,#161,#27,.T.);
#134=EDGE_CURVE('',#162,#162,#28,.T.);
#135=EDGE_CURVE('',#163,#163,#29,.T.);
#136=EDGE_CURVE('',#164,#164,#30,.T.);
#137=EDGE_CURVE('',#165,#165,#31,.T.);
#138=VERTEX_POINT('',#482);
#139=VERTEX_POINT('',#483);
#140=VERTEX_POINT('',#485);
#141=VERTEX_POINT('',#487);
#142=VERTEX_POINT('',#491);
#143=VERTEX_POINT('',#493);
#144=VERTEX_POINT('',#497);
#145=VERTEX_POINT('',#499);
#146=VERTEX_POINT('',#503);
#147=VERTEX_POINT('',#505);
#148=VERTEX_POINT('',#508);
#149=VERTEX_POINT('',#510);
#150=VERTEX_POINT('',#516);
#151=VERTEX_POINT('',#518);
#152=VERTEX_POINT('',#520);
#153=VERTEX_POINT('',#522);
#154=VERTEX_POINT('',#526);
#155=VERTEX_POINT('',#528);
#156=VERTEX_POINT('',#531);
#157=VERTEX_POINT('',#536);
#158=VERTEX_POINT('',#538);
#159=VERTEX_POINT('',#541);
#160=VERTEX_POINT('',#546);
#161=VERTEX_POINT('',#548);
#162=VERTEX_POINT('',#551);
#163=VERTEX_POINT('',#556);
#164=VERTEX_POINT('',#558);
#165=VERTEX_POINT('',#561);
#166=LINE('',#481,#178);
#167=LINE('',#484,#179);
#168=LINE('',#486,#180);
#169=LINE('',#488,#181);
#170=LINE('',#490,#182);
#171=LINE('',#492,#183);
#172=LINE('',#494,#184);
#173=LINE('',#496,#185);
#174=LINE('',#498,#186);
#175=LINE('',#500,#187);
#176=LINE('',#512,#188);
#177=LINE('',#513,#189);
#178=VECTOR('',#381,1.);
#179=VECTOR('',#382,1.);
#180=VECTOR('',#383,1.);
#181=VECTOR('',#384,1.);
#182=VECTOR('',#387,1.);
#183=VECTOR('',#388,1.);
#184=VECTOR('',#389,1.);
#185=VECTOR('',#392,1.);
#186=VECTOR('',#393,1.);
#187=VECTOR('',#394,1.);
#188=VECTOR('',#409,1.);
#189=VECTOR('',#410,1.);
#190=EDGE_LOOP('',(#42,#43,#44,#45));
#191=EDGE_LOOP('',(#46,#47,#48,#49));
#192=EDGE_LOOP('',(#50,#51,#52,#53));
#193=EDGE_LOOP('',(#54));
#194=EDGE_LOOP('',(#55));
#195=EDGE_LOOP('',(#56));
#196=EDGE_LOOP('',(#57));
#197=EDGE_LOOP('',(#58,#59,#60,#61));
#198=EDGE_LOOP('',(#62));
#199=EDGE_LOOP('',(#63));
#200=EDGE_LOOP('',(#64));
#201=EDGE_LOOP('',(#65));
#202=EDGE_LOOP('',(#66));
#203=EDGE_LOOP('',(#67));
#204=EDGE_LOOP('',(#68,#69,#70,#71));
#205=EDGE_LOOP('',(#72));
#206=EDGE_LOOP('',(#73));
#207=EDGE_LOOP('',(#74,#75,#76,#77));
#208=EDGE_LOOP('',(#78));
#209=EDGE_LOOP('',(#79));
#210=EDGE_LOOP('',(#80));
#211=EDGE_LOOP('',(#81));
#212=EDGE_LOOP('',(#82));
#213=EDGE_LOOP('',(#83));
#214=EDGE_LOOP('',(#84));
#215=EDGE_LOOP('',(#85));
#216=EDGE_LOOP('',(#86));
#217=EDGE_LOOP('',(#87));
#218=EDGE_LOOP('',(#88));
#219=EDGE_LOOP('',(#89));
#220=EDGE_LOOP('',(#90));
#221=EDGE_LOOP('',(#91));
#222=EDGE_LOOP('',(#92));
#223=EDGE_LOOP('',(#93));
#224=EDGE_LOOP('',(#94));
#225=EDGE_LOOP('',(#95));
#226=EDGE_LOOP('',(#96));
#227=EDGE_LOOP('',(#97));
#228=EDGE_LOOP('',(#98));
#229=EDGE_LOOP('',(#99));
#230=EDGE_LOOP('',(#100));
#231=EDGE_LOOP('',(#101));
#232=EDGE_LOOP('',(#102));
#233=EDGE_LOOP('',(#103));
#234=EDGE_LOOP('',(#104));
#235=EDGE_LOOP('',(#105));
#236=FACE_BOUND('',#190,.T.);
#237=FACE_BOUND('',#191,.T.);
#238=FACE_BOUND('',#192,.T.);
#239=FACE_BOUND('',#193,.T.);
#240=FACE_BOUND('',#194,.T.);
#241=FACE_BOUND('',#195,.T.);
#242=FACE_BOUND('',#196,.T.);
#243=FACE_BOUND('',#197,.T.);
#244=FACE_BOUND('',#198,.T.);
#245=FACE_BOUND('',#199,.T.);
#246=FACE_BOUND('',#200,.T.);
#247=FACE_BOUND('',#201,.T.);
#248=FACE_BOUND('',#202,.T.);
#249=FACE_BOUND('',#203,.T.);
#250=FACE_BOUND('',#204,.T.);
#251=FACE_BOUND('',#205,.T.);
#252=FACE_BOUND('',#206,.T.);
#253=FACE_BOUND('',#207,.T.);
#254=FACE_BOUND('',#208,.T.);
#255=FACE_BOUND('',#209,.T.);
#256=FACE_BOUND('',#210,.T.);
#257=FACE_BOUND('',#211,.T.);
#258=FACE_BOUND('',#212,.T.);
#259=FACE_BOUND('',#213,.T.);
#260=FACE_BOUND('',#214,.T.);
#261=FACE_BOUND('',#215,.T.);
#262=FACE_BOUND('',#216,.T.);
#263=FACE_BOUND('',#217,.T.);
#264=FACE_BOUND('',#218,.T.);
#265=FACE_BOUND('',#219,.T.);
#266=FACE_BOUND('',#220,.T.);
#267=FACE_BOUND('',#221,.T.);
#268=FACE_BOUND('',#222,.T.);
#269=FACE_BOUND('',#223,.T.);
#270=FACE_BOUND('',#224,.T.);
#271=FACE_BOUND('',#225,.T.);
#272=FACE_BOUND('',#226,.T.);
#273=FACE_BOUND('',#227,.T.);
#274=FACE_BOUND('',#228,.T.);
#275=FACE_BOUND('',#229,.T.);
#276=FACE_BOUND('',#230,.T.);
#277=FACE_BOUND('',#231,.T.);
#278=FACE_BOUND('',#232,.T.);
#279=FACE_BOUND('',#233,.T.);
#280=FACE_BOUND('',#234,.T.);
#281=FACE_BOUND('',#235,.T.);
#282=PLANE('',#333);
#283=PLANE('',#334);
#284=PLANE('',#335);
#285=PLANE('',#342);
#286=PLANE('',#343);
#287=PLANE('',#348);
#288=PLANE('',#354);
#289=PLANE('',#355);
#290=PLANE('',#361);
#291=PLANE('',#362);
#292=PLANE('',#368);
#293=PLANE('',#369);
#294=PLANE('',#375);
#295=PLANE('',#376);
#296=ADVANCED_FACE('',(#236),#282,.T.);
#297=ADVANCED_FACE('',(#237),#283,.F.);
#298=ADVANCED_FACE('',(#238),#284,.F.);
#299=ADVANCED_FACE('',(#239,#240),#32,.F.);
#300=ADVANCED_FACE('',(#241,#242),#33,.F.);
#301=ADVANCED_FACE('',(#243),#285,.T.);
#302=ADVANCED_FACE('',(#244,#245,#246,#247,#248,#249,#250),#286,.T.);
#303=ADVANCED_FACE('',(#251,#252,#253),#287,.F.);
#304=ADVANCED_FACE('',(#254,#255),#34,.F.);
#305=ADVANCED_FACE('',(#256,#257),#35,.T.);
#306=ADVANCED_FACE('',(#258,#259),#288,.T.);
#307=ADVANCED_FACE('',(#260),#289,.T.);
#308=ADVANCED_FACE('',(#261,#262),#36,.F.);
#309=ADVANCED_FACE('',(#263,#264),#37,.T.);
#310=ADVANCED_FACE('',(#265,#266),#290,.T.);
#311=ADVANCED_FACE('',(#267),#291,.T.);
#312=ADVANCED_FACE('',(#268,#269),#38,.F.);
#313=ADVANCED_FACE('',(#270,#271),#39,.T.);
#314=ADVANCED_FACE('',(#272,#273),#292,.T.);
#315=ADVANCED_FACE('',(#274),#293,.T.);
#316=ADVANCED_FACE('',(#275,#276),#40,.F.);
#317=ADVANCED_FACE('',(#277,#278),#41,.T.);
#318=ADVANCED_FACE('',(#279,#280),#294,.T.);
#319=ADVANCED_FACE('',(#281),#295,.T.);
#320=CLOSED_SHELL('',(#296,#297,#298,#299,#300,#301,#302,#303,#304,#305,
#306,#307,#308,#309,#310,#311,#312,#313,#314,#315,#316,#317,#318,#319));
#321=STYLED_ITEM('',(#322),#329);
#322=PRESENTATION_STYLE_ASSIGNMENT((#323));
#323=SURFACE_STYLE_USAGE(.BOTH.,#324);
#324=SURFACE_SIDE_STYLE('',(#325));
#325=SURFACE_STYLE_FILL_AREA(#326);
#326=FILL_AREA_STYLE('',(#327));
#327=FILL_AREA_STYLE_COLOUR('',#328);
#328=COLOUR_RGB('',0.615686274509804,0.811764705882353,0.929411764705882);
#329=MANIFOLD_SOLID_BREP('Part 1',#320);
#330=SHAPE_DEFINITION_REPRESENTATION(#570,#331);
#331=SHAPE_REPRESENTATION('Part 1',(#332),#565);
#332=AXIS2_PLACEMENT_3D('',#479,#377,#378);
#333=AXIS2_PLACEMENT_3D('',#480,#379,#380);
#334=AXIS2_PLACEMENT_3D('',#489,#385,#386);
#335=AXIS2_PLACEMENT_3D('',#495,#390,#391);
#336=AXIS2_PLACEMENT_3D('',#501,#395,#396);
#337=AXIS2_PLACEMENT_3D('',#502,#397,#398);
#338=AXIS2_PLACEMENT_3D('',#504,#399,#400);
#339=AXIS2_PLACEMENT_3D('',#506,#401,#402);
#340=AXIS2_PLACEMENT_3D('',#507,#403,#404);
#341=AXIS2_PLACEMENT_3D('',#509,#405,#406);
#342=AXIS2_PLACEMENT_3D('',#511,#407,#408);
#343=AXIS2_PLACEMENT_3D('',#514,#411,#412);
#344=AXIS2_PLACEMENT_3D('',#515,#413,#414);
#345=AXIS2_PLACEMENT_3D('',#517,#415,#416);
#346=AXIS2_PLACEMENT_3D('',#519,#417,#418);
#347=AXIS2_PLACEMENT_3D('',#521,#419,#420);
#348=AXIS2_PLACEMENT_3D('',#523,#421,#422);
#349=AXIS2_PLACEMENT_3D('',#524,#423,#424);
#350=AXIS2_PLACEMENT_3D('',#525,#425,#426);
#351=AXIS2_PLACEMENT_3D('',#527,#427,#428);
#352=AXIS2_PLACEMENT_3D('',#529,#429,#430);
#353=AXIS2_PLACEMENT_3D('',#530,#431,#432);
#354=AXIS2_PLACEMENT_3D('',#532,#433,#434);
#355=AXIS2_PLACEMENT_3D('',#533,#435,#436);
#356=AXIS2_PLACEMENT_3D('',#534,#437,#438);
#357=AXIS2_PLACEMENT_3D('',#535,#439,#440);
#358=AXIS2_PLACEMENT_3D('',#537,#441,#442);
#359=AXIS2_PLACEMENT_3D('',#539,#443,#444);
#360=AXIS2_PLACEMENT_3D('',#540,#445,#446);
#361=AXIS2_PLACEMENT_3D('',#542,#447,#448);
#362=AXIS2_PLACEMENT_3D('',#543,#449,#450);
#363=AXIS2_PLACEMENT_3D('',#544,#451,#452);
#364=AXIS2_PLACEMENT_3D('',#545,#453,#454);
#365=AXIS2_PLACEMENT_3D('',#547,#455,#456);
#366=AXIS2_PLACEMENT_3D('',#549,#457,#458);
#367=AXIS2_PLACEMENT_3D('',#550,#459,#460);
#368=AXIS2_PLACEMENT_3D('',#552,#461,#462);
#369=AXIS2_PLACEMENT_3D('',#553,#463,#464);
#370=AXIS2_PLACEMENT_3D('',#554,#465,#466);
#371=AXIS2_PLACEMENT_3D('',#555,#467,#468);
#372=AXIS2_PLACEMENT_3D('',#557,#469,#470);
#373=AXIS2_PLACEMENT_3D('',#559,#471,#472);
#374=AXIS2_PLACEMENT_3D('',#560,#473,#474);
#375=AXIS2_PLACEMENT_3D('',#562,#475,#476);
#376=AXIS2_PLACEMENT_3D('',#563,#477,#478);
#377=DIRECTION('',(0.,0.,1.));
#378=DIRECTION('',(1.,0.,0.));
#379=DIRECTION('',(0.,1.,0.));
#380=DIRECTION('',(0.,0.,1.));
#381=DIRECTION('',(1.,0.,0.));
#382=DIRECTION('',(0.,0.,-1.));
#383=DIRECTION('',(1.,0.,0.));
#384=DIRECTION('',(0.,0.,-1.));
#385=DIRECTION('',(1.,6.82961998416066E-17,0.));
#386=DIRECTION('',(-6.82961998416066E-17,1.,0.));
#387=DIRECTION('',(6.82961998416066E-17,-1.,0.));
#388=DIRECTION('',(0.,0.,-1.));
#389=DIRECTION('',(6.82961998416066E-17,-1.,0.));
#390=DIRECTION('',(0.,1.,0.));
#391=DIRECTION('',(0.,0.,1.));
#392=DIRECTION('',(1.,0.,0.));
#393=DIRECTION('',(0.,0.,-1.));
#394=DIRECTION('',(1.,0.,0.));
#395=DIRECTION('',(0.,0.,-1.));
#396=DIRECTION('',(-1.,0.,0.));
#397=DIRECTION('',(0.,0.,1.));
#398=DIRECTION('',(1.,0.,0.));
#399=DIRECTION('',(0.,0.,1.));
#400=DIRECTION('',(1.,0.,0.));
#401=DIRECTION('',(0.,0.,-1.));
#402=DIRECTION('',(-1.,0.,0.));
#403=DIRECTION('',(0.,0.,1.));
#404=DIRECTION('',(1.,0.,0.));
#405=DIRECTION('',(0.,0.,1.));
#406=DIRECTION('',(1.,0.,0.));
#407=DIRECTION('',(1.,6.82961998416066E-17,0.));
#408=DIRECTION('',(-6.82961998416066E-17,1.,0.));
#409=DIRECTION('',(6.82961998416066E-17,-1.,0.));
#410=DIRECTION('',(6.82961998416066E-17,-1.,0.));
#411=DIRECTION('',(0.,0.,1.));
#412=DIRECTION('',(1.,0.,0.));
#413=DIRECTION('',(0.,0.,1.));
#414=DIRECTION('',(1.,0.,0.));
#415=DIRECTION('',(0.,0.,1.));
#416=DIRECTION('',(1.,0.,0.));
#417=DIRECTION('',(0.,0.,1.));
#418=DIRECTION('',(1.,0.,0.));
#419=DIRECTION('',(0.,0.,1.));
#420=DIRECTION('',(1.,0.,0.));
#421=DIRECTION('',(0.,0.,1.));
#422=DIRECTION('',(1.,0.,0.));
#423=DIRECTION('',(0.,0.,-1.));
#424=DIRECTION('',(-1.,0.,0.));
#425=DIRECTION('',(0.,0.,1.));
#426=DIRECTION('',(1.,0.,0.));
#427=DIRECTION('',(0.,0.,1.));
#428=DIRECTION('',(1.,0.,0.));
#429=DIRECTION('',(0.,0.,-1.));
#430=DIRECTION('',(-1.,0.,0.));
#431=DIRECTION('',(0.,0.,1.));
#432=DIRECTION('',(1.,0.,0.));
#433=DIRECTION('',(0.,0.,1.));
#434=DIRECTION('',(1.,0.,0.));
#435=DIRECTION('',(0.,0.,1.));
#436=DIRECTION('',(1.,0.,0.));
#437=DIRECTION('',(0.,0.,-1.));
#438=DIRECTION('',(-1.,0.,0.));
#439=DIRECTION('',(0.,0.,1.));
#440=DIRECTION('',(1.,0.,0.));
#441=DIRECTION('',(0.,0.,1.));
#442=DIRECTION('',(1.,0.,0.));
#443=DIRECTION('',(0.,0.,-1.));
#444=DIRECTION('',(-1.,0.,0.));
#445=DIRECTION('',(0.,0.,1.));
#446=DIRECTION('',(1.,0.,0.));
#447=DIRECTION('',(0.,0.,1.));
#448=DIRECTION('',(1.,0.,0.));
#449=DIRECTION('',(0.,0.,1.));
#450=DIRECTION('',(1.,0.,0.));
#451=DIRECTION('',(0.,0.,-1.));
#452=DIRECTION('',(-1.,0.,0.));
#453=DIRECTION('',(0.,0.,1.));
#454=DIRECTION('',(1.,0.,0.));
#455=DIRECTION('',(0.,0.,1.));
#456=DIRECTION('',(1.,0.,0.));
#457=DIRECTION('',(0.,0.,-1.));
#458=DIRECTION('',(-1.,0.,0.));
#459=DIRECTION('',(0.,0.,1.));
#460=DIRECTION('',(1.,0.,0.));
#461=DIRECTION('',(0.,0.,1.));
#462=DIRECTION('',(1.,0.,0.));
#463=DIRECTION('',(0.,0.,1.));
#464=DIRECTION('',(1.,0.,0.));
#465=DIRECTION('',(0.,0.,-1.));
#466=DIRECTION('',(-1.,0.,0.));
#467=DIRECTION('',(0.,0.,1.));
#468=DIRECTION('',(1.,0.,0.));
#469=DIRECTION('',(0.,0.,1.));
#470=DIRECTION('',(1.,0.,0.));
#471=DIRECTION('',(0.,0.,-1.));
#472=DIRECTION('',(-1.,0.,0.));
#473=DIRECTION('',(0.,0.,1.));
#474=DIRECTION('',(1.,0.,0.));
#475=DIRECTION('',(0.,0.,1.));
#476=DIRECTION('',(1.,0.,0.));
#477=DIRECTION('',(0.,0.,1.));
#478=DIRECTION('',(1.,0.,0.));
#479=CARTESIAN_POINT('',(0.,0.,0.));
#480=CARTESIAN_POINT('',(0.00168414283699988,0.0572108862161636,0.003175));
#481=CARTESIAN_POINT('',(0.00168414283699988,0.0572108862161636,0.));
#482=CARTESIAN_POINT('',(-0.0539228071630001,0.0572108862161636,0.));
#483=CARTESIAN_POINT('',(0.0572910928369999,0.0572108862161636,0.));
#484=CARTESIAN_POINT('',(-0.0539228071630001,0.0572108862161636,0.003175));
#485=CARTESIAN_POINT('',(-0.0539228071630001,0.0572108862161636,0.003175));
#486=CARTESIAN_POINT('',(0.00168414283699988,0.0572108862161636,0.003175));
#487=CARTESIAN_POINT('',(0.0572910928369999,0.0572108862161636,0.003175));
#488=CARTESIAN_POINT('',(0.0572910928369999,0.0572108862161636,0.003175));
#489=CARTESIAN_POINT('',(-0.0539228071630001,0.00641088621616364,0.003175));
#490=CARTESIAN_POINT('',(-0.0539228071630001,0.00641088621616364,0.));
#491=CARTESIAN_POINT('',(-0.0539228071630001,-0.0443891137838364,0.));
#492=CARTESIAN_POINT('',(-0.0539228071630001,-0.0443891137838364,0.003175));
#493=CARTESIAN_POINT('',(-0.0539228071630001,-0.0443891137838364,0.003175));
#494=CARTESIAN_POINT('',(-0.0539228071630001,0.00641088621616364,0.003175));
#495=CARTESIAN_POINT('',(0.00168414283699989,-0.0443891137838364,0.003175));
#496=CARTESIAN_POINT('',(0.00168414283699989,-0.0443891137838364,0.));
#497=CARTESIAN_POINT('',(0.0572910928369999,-0.0443891137838364,0.));
#498=CARTESIAN_POINT('',(0.0572910928369999,-0.0443891137838364,0.003175));
#499=CARTESIAN_POINT('',(0.0572910928369999,-0.0443891137838364,0.003175));
#500=CARTESIAN_POINT('',(0.00168414283699989,-0.0443891137838364,0.003175));
#501=CARTESIAN_POINT('',(-0.0491158571630001,0.00641088621616364,0.003175));
#502=CARTESIAN_POINT('',(-0.0491158571630001,0.00641088621616364,0.003175));
#503=CARTESIAN_POINT('',(-0.0474839071630001,0.00641088621616364,0.003175));
#504=CARTESIAN_POINT('',(-0.0491158571630001,0.00641088621616364,0.));
#505=CARTESIAN_POINT('',(-0.0474839071630001,0.00641088621616364,0.));
#506=CARTESIAN_POINT('',(0.0524841428369999,0.00641088621616364,0.003175));
#507=CARTESIAN_POINT('',(0.0524841428369999,0.00641088621616364,0.003175));
#508=CARTESIAN_POINT('',(0.0541160928369999,0.00641088621616364,0.003175));
#509=CARTESIAN_POINT('',(0.0524841428369999,0.00641088621616364,0.));
#510=CARTESIAN_POINT('',(0.0541160928369999,0.00641088621616364,0.));
#511=CARTESIAN_POINT('',(0.0572910928369999,0.00641088621616364,0.003175));
#512=CARTESIAN_POINT('',(0.0572910928369999,0.00641088621616364,0.));
#513=CARTESIAN_POINT('',(0.0572910928369999,0.00641088621616364,0.003175));
#514=CARTESIAN_POINT('',(0.00168414283699989,0.00641088621616363,0.003175));
#515=CARTESIAN_POINT('',(0.0358153928369999,0.0471016862161637,0.003175));
#516=CARTESIAN_POINT('',(0.0402984928369999,0.0471016862161637,0.003175));
#517=CARTESIAN_POINT('',(0.0358153928369999,-0.0342799137838363,0.003175));
#518=CARTESIAN_POINT('',(0.0402984928369999,-0.0342799137838363,0.003175));
#519=CARTESIAN_POINT('',(-0.0324471071630001,-0.0342799137838363,0.003175));
#520=CARTESIAN_POINT('',(-0.0279640071630001,-0.0342799137838363,0.003175));
#521=CARTESIAN_POINT('',(-0.0324471071630001,0.0471016862161637,0.003175));
#522=CARTESIAN_POINT('',(-0.0279640071630001,0.0471016862161637,0.003175));
#523=CARTESIAN_POINT('',(0.00168414283699989,0.00641088621616363,0.));
#524=CARTESIAN_POINT('',(-0.0324471071630001,0.0471016862161637,0.0072136));
#525=CARTESIAN_POINT('',(-0.0324471071630001,0.0471016862161637,0.003175));
#526=CARTESIAN_POINT('',(-0.0305040071630001,0.0471016862161637,0.003175));
#527=CARTESIAN_POINT('',(-0.0324471071630001,0.0471016862161637,0.0072136));
#528=CARTESIAN_POINT('',(-0.0305040071630001,0.0471016862161637,0.0072136));
#529=CARTESIAN_POINT('',(-0.0324471071630001,0.0471016862161637,0.0072136));
#530=CARTESIAN_POINT('',(-0.0324471071630001,0.0471016862161637,0.0072136));
#531=CARTESIAN_POINT('',(-0.0279640071630001,0.0471016862161637,0.0072136));
#532=CARTESIAN_POINT('',(0.00168414283699989,0.00641088621616363,0.0072136));
#533=CARTESIAN_POINT('',(0.00168414283699989,0.00641088621616363,0.003175));
#534=CARTESIAN_POINT('',(0.0358153928369999,0.0471016862161637,0.0072136));
#535=CARTESIAN_POINT('',(0.0358153928369999,0.0471016862161637,0.003175));
#536=CARTESIAN_POINT('',(0.0377584928369999,0.0471016862161637,0.003175));
#537=CARTESIAN_POINT('',(0.0358153928369999,0.0471016862161637,0.0072136));
#538=CARTESIAN_POINT('',(0.0377584928369999,0.0471016862161637,0.0072136));
#539=CARTESIAN_POINT('',(0.0358153928369999,0.0471016862161637,0.0072136));
#540=CARTESIAN_POINT('',(0.0358153928369999,0.0471016862161637,0.0072136));
#541=CARTESIAN_POINT('',(0.0402984928369999,0.0471016862161637,0.0072136));
#542=CARTESIAN_POINT('',(0.00168414283699989,0.00641088621616363,0.0072136));
#543=CARTESIAN_POINT('',(0.00168414283699989,0.00641088621616363,0.003175));
#544=CARTESIAN_POINT('',(-0.0324471071630001,-0.0342799137838363,0.0072136));
#545=CARTESIAN_POINT('',(-0.0324471071630001,-0.0342799137838363,0.003175));
#546=CARTESIAN_POINT('',(-0.0305040071630001,-0.0342799137838363,0.003175));
#547=CARTESIAN_POINT('',(-0.0324471071630001,-0.0342799137838363,0.0072136));
#548=CARTESIAN_POINT('',(-0.0305040071630001,-0.0342799137838363,0.0072136));
#549=CARTESIAN_POINT('',(-0.0324471071630001,-0.0342799137838363,0.0072136));
#550=CARTESIAN_POINT('',(-0.0324471071630001,-0.0342799137838363,0.0072136));
#551=CARTESIAN_POINT('',(-0.0279640071630001,-0.0342799137838363,0.0072136));
#552=CARTESIAN_POINT('',(0.00168414283699989,0.00641088621616363,0.0072136));
#553=CARTESIAN_POINT('',(0.00168414283699989,0.00641088621616363,0.003175));
#554=CARTESIAN_POINT('',(0.0358153928369999,-0.0342799137838363,0.0072136));
#555=CARTESIAN_POINT('',(0.0358153928369999,-0.0342799137838363,0.003175));
#556=CARTESIAN_POINT('',(0.0377584928369999,-0.0342799137838363,0.003175));
#557=CARTESIAN_POINT('',(0.0358153928369999,-0.0342799137838363,0.0072136));
#558=CARTESIAN_POINT('',(0.0377584928369999,-0.0342799137838363,0.0072136));
#559=CARTESIAN_POINT('',(0.0358153928369999,-0.0342799137838363,0.0072136));
#560=CARTESIAN_POINT('',(0.0358153928369999,-0.0342799137838363,0.0072136));
#561=CARTESIAN_POINT('',(0.0402984928369999,-0.0342799137838363,0.0072136));
#562=CARTESIAN_POINT('',(0.00168414283699989,0.00641088621616363,0.0072136));
#563=CARTESIAN_POINT('',(0.00168414283699989,0.00641088621616363,0.003175));
#564=MECHANICAL_DESIGN_GEOMETRIC_PRESENTATION_REPRESENTATION('',(#321),
#565);
#565=(
GEOMETRIC_REPRESENTATION_CONTEXT(3)
GLOBAL_UNCERTAINTY_ASSIGNED_CONTEXT((#566))
GLOBAL_UNIT_ASSIGNED_CONTEXT((#569,#568,#567))
REPRESENTATION_CONTEXT('Part 1','TOP_LEVEL_ASSEMBLY_PART')
);
#566=UNCERTAINTY_MEASURE_WITH_UNIT(LENGTH_MEASURE(1.E-8),#569,
'DISTANCE_ACCURACY_VALUE','Maximum Tolerance applied to model');
#567=(
NAMED_UNIT(*)
SI_UNIT($,.STERADIAN.)
SOLID_ANGLE_UNIT()
);
#568=(
NAMED_UNIT(*)
PLANE_ANGLE_UNIT()
SI_UNIT($,.RADIAN.)
);
#569=(
LENGTH_UNIT()
NAMED_UNIT(*)
SI_UNIT($,.METRE.)
);
#570=PRODUCT_DEFINITION_SHAPE('','',#571);
#571=PRODUCT_DEFINITION('','',#573,#572);
#572=PRODUCT_DEFINITION_CONTEXT('',#579,'design');
#573=PRODUCT_DEFINITION_FORMATION_WITH_SPECIFIED_SOURCE('','',#575,
 .NOT_KNOWN.);
#574=PRODUCT_RELATED_PRODUCT_CATEGORY('','',(#575));
#575=PRODUCT('Part 1','Part 1','Part 1',(#577));
#576=PRODUCT_CATEGORY('','');
#577=PRODUCT_CONTEXT('',#579,'mechanical');
#578=APPLICATION_PROTOCOL_DEFINITION('international standard',
'ap242_managed_model_based_3d_engineering',2020,#579);
#579=APPLICATION_CONTEXT('managed model based 3d engineering');
ENDSEC;
END-ISO-10303-21;
